<?xml version="1.0" encoding="UTF-8"?>
<svg version="1.1" xmlns="http://www.w3.org/2000/svg" width="436" height="351">
<path d="M0 0 C2.5 0.1875 2.5 0.1875 5 1 C7.10136625 4.15204938 7.29232539 5.21187976 6.69921875 8.83984375 C5.47023723 12.63664141 3.23051943 15.9123524 1.08203125 19.25390625 C-0.28156018 21.98448211 -0.28156018 21.98448211 0.59765625 24.94921875 C2.08945122 28.19460002 3.76379261 31.20160272 5.625 34.25 C9 39.7877551 9 39.7877551 9 42 C9.66 42 10.32 42 11 42 C11.35602295 42.63687744 11.7120459 43.27375488 12.07885742 43.92993164 C13.78119344 46.97442608 15.48436506 50.01845242 17.1875 53.0625 C17.81156738 54.17890869 18.43563477 55.29531738 19.07861328 56.44555664 C22.30599454 62.21302904 25.54709171 67.97150911 28.82421875 73.7109375 C29.42145752 74.75886475 30.01869629 75.80679199 30.6340332 76.88647461 C31.78135123 78.89713699 32.9321502 80.90581767 34.08666992 82.91235352 C34.60205322 83.81655029 35.11743652 84.72074707 35.6484375 85.65234375 C36.10395996 86.44632568 36.55948242 87.24030762 37.02880859 88.05834961 C38 90 38 90 38 92 C38.66 92 39.32 92 40 92 C40.32871094 92.62003906 40.65742188 93.24007812 40.99609375 93.87890625 C42.01947364 95.78422328 43.06772036 97.67627653 44.1328125 99.55859375 C45.48285125 102.04684509 46.66371108 104.45787029 47.8046875 107.03515625 C50.62324224 113.07419536 50.62324224 113.07419536 55 118 C59.36446064 119.53816379 63.74846176 119.28894697 68.3046875 119.015625 C72 119 72 119 74.015625 120.29296875 C75 122 75 122 74.875 125.0625 C74 128 74 128 71 130 C69.11617437 129.79091606 67.23244636 129.58084432 65.34960938 129.36303711 C61.18799015 129.03465649 57.77575166 129.06007333 54 131 C48.08236727 137.52883039 44.56058743 146.02639636 41 154 C40.67 154.66 40.34 155.32 40 156 C39.34 156 38.68 156 38 156 C37.73968994 156.86318848 37.47937988 157.72637695 37.21118164 158.61572266 C35.97653588 162.06556333 34.45675338 164.98076492 32.62109375 168.1484375 C32.29294174 168.71855057 31.96478973 169.28866364 31.62669373 169.87605286 C30.56862218 171.71197189 29.50318115 173.54348954 28.4375 175.375 C27.34101663 177.27216255 26.24623949 179.17030314 25.15148926 181.06846619 C24.43071943 182.31776204 23.70928853 183.56667674 22.98718262 184.81520081 C20.23356916 189.57912028 17.54277858 194.37521258 14.875 199.1875 C12.23266671 203.93270292 9.4114709 208.49196418 6.359375 212.984375 C1.53097953 219.44347021 1.53097953 219.44347021 0.375 227 C1.3113645 228.72867293 2.27299899 230.44516052 3.30078125 232.12109375 C6.988592 238.28129593 6.988592 238.28129593 7.0625 242.9375 C6 246 6 246 4.25 247.625 C2 248 2 248 -0.625 246.9375 C-3.27303309 244.77726248 -4.03825694 243.23495393 -5 240 C-5.66 240 -6.32 240 -7 240 C-10 235.61538462 -10 235.61538462 -10 233 C-23.97781039 232.95323791 -37.95560861 232.91812359 -51.93348122 232.89637566 C-58.42394346 232.88593784 -64.91435316 232.87177851 -71.40478516 232.84912109 C-77.66822196 232.82739289 -83.93160822 232.81543136 -90.1950798 232.81024551 C-92.58488129 232.80654974 -94.97468002 232.79933288 -97.36445999 232.78853989 C-100.71129591 232.77402548 -104.05792284 232.77202207 -107.40478516 232.77294922 C-108.39309326 232.76575867 -109.38140137 232.75856812 -110.3996582 232.75115967 C-115.29677192 232.76584246 -119.46407569 232.91123841 -124 235 C-125.87833817 237.24281031 -125.87833817 237.24281031 -127.1875 239.9375 C-130.46950589 246.07656887 -130.46950589 246.07656887 -133 248 C-136.5625 247.875 -136.5625 247.875 -140 247 C-142 244 -142 244 -142 241 C-141.34 241 -140.68 241 -140 241 C-139.83564453 239.89978516 -139.83564453 239.89978516 -139.66796875 238.77734375 C-138.96805249 235.8671656 -137.93455241 234.05557233 -136.3125 231.5625 C-134.27985894 228.05611278 -134.27985894 228.05611278 -134.3125 224.0625 C-136.25221415 220.54227802 -138.27123023 217.08792376 -140.3828125 213.66796875 C-141.88494457 211.18981367 -143.2670344 208.68424286 -144.625 206.125 C-148.08188634 199.6985012 -151.88374373 193.4824958 -155.68603516 187.25634766 C-158.71070954 182.2726315 -161.45550444 177.24295263 -164 172 C-166.58931878 167.05824018 -169.41088739 162.31158296 -172.4375 157.625 C-175.38445919 153.05433661 -178.02124912 148.38351643 -180.578125 143.5859375 C-182.28580379 140.48021399 -184.16325095 137.51407639 -186.1171875 134.55859375 C-187 133 -187 133 -187 131 C-190.81037041 129.09481479 -196.07935935 129.75456691 -200.30078125 129.671875 C-204.78105139 128.85814061 -206.29975687 127.61425192 -209 124 C-209 122.68 -209 121.36 -209 120 C-204.97156394 116.4641932 -200.78121994 116.63497089 -195.6875 116.8125 C-194.57665039 116.83280273 -194.57665039 116.83280273 -193.44335938 116.85351562 C-191.62858925 116.88864021 -189.81419712 116.94244028 -188 117 C-187.484375 115.906875 -186.96875 114.81375 -186.4375 113.6875 C-184.17540778 109.13916511 -181.44472412 104.95670364 -178.68359375 100.69921875 C-176.52221448 97.23399119 -174.74130837 93.69157375 -173 90 C-172.34 90 -171.68 90 -171 90 C-171 88.68 -171 87.36 -171 86 C-170.34 86 -169.68 86 -169 86 C-169 85.01 -169 84.02 -169 83 C-168.34 83 -167.68 83 -167 83 C-166.7628125 82.35804688 -166.525625 81.71609375 -166.28125 81.0546875 C-161.6115601 69.9214634 -155.50485278 59.4120887 -148.62670898 49.51660156 C-144.70689007 43.78482752 -141.67544969 37.71876072 -138.69140625 31.4609375 C-137.25810825 28.52813836 -135.73130124 25.76372858 -134 23 C-134.804375 22.113125 -135.60875 21.22625 -136.4375 20.3125 C-138.72948495 17.56211806 -139.62891628 15.61806626 -140 12 C-140.185625 11.071875 -140.37125 10.14375 -140.5625 9.1875 C-140.706875 8.465625 -140.85125 7.74375 -141 7 C-141.66 7 -142.32 7 -143 7 C-142.67 5.35 -142.34 3.7 -142 2 C-138.32390223 1.05471772 -135.61184249 0.70344116 -132 2 C-128.71636088 5.38021674 -125 10.10422023 -125 15 C-122.08276884 15.83898723 -119.51501063 16.11788959 -116.48376465 16.0957489 C-115.58373215 16.09159973 -114.68369965 16.08745056 -113.75639343 16.08317566 C-112.77652969 16.07337173 -111.79666595 16.06356781 -110.78710938 16.0534668 C-109.74931839 16.04707184 -108.7115274 16.04067688 -107.64228821 16.03408813 C-104.20937713 16.01129278 -100.77659185 15.98068581 -97.34375 15.94921875 C-94.96008438 15.92998924 -92.57641736 15.91093334 -90.19274902 15.89204407 C-85.19600535 15.8510528 -80.19931997 15.8058261 -75.20263672 15.75805664 C-68.79330323 15.69742327 -62.38395055 15.65053356 -55.97447968 15.60722637 C-51.0519941 15.57190143 -46.12961841 15.52765921 -41.20722961 15.48087502 C-38.8437203 15.45980481 -36.48018051 15.44190992 -34.11662292 15.4272213 C-30.8152144 15.40569217 -27.51415623 15.37178213 -24.21289062 15.3347168 C-23.23302689 15.33098557 -22.25316315 15.32725433 -21.24360657 15.32341003 C-20.34357407 15.31080139 -19.44354156 15.29819275 -18.51623535 15.28520203 C-17.736063 15.27837245 -16.95589066 15.27154287 -16.15207672 15.26450634 C-13.67856438 14.96049316 -12.10658372 14.32375579 -10 13 C-8.60699818 11.04109119 -7.27754554 9.0360882 -6 7 C-4.08652339 4.52373615 -2.21189676 2.21189676 0 0 Z M-116 29 C-115.10955995 30.83595887 -114.21232326 32.66862167 -113.3125 34.5 C-112.81363281 35.5209375 -112.31476563 36.541875 -111.80078125 37.59375 C-111.20652344 38.7178125 -110.61226563 39.841875 -110 41 C-109.77957031 41.67820801 -109.55914062 42.35641602 -109.33203125 43.05517578 C-108.21661436 45.74350477 -107.27283721 47.14758352 -105 49 C-99.3085163 50.1781932 -93.67340772 49.93017568 -87.88671875 49.78125 C-86.18995329 49.76632182 -84.49315326 49.75493751 -82.79634094 49.74694824 C-78.33857364 49.71645825 -73.88290468 49.63792635 -69.42596436 49.54931641 C-64.87475981 49.46735476 -60.32321482 49.43091499 -55.77148438 49.390625 C-46.84673621 49.3049258 -37.92354284 49.16845973 -29 49 C-27.46382917 46.42474285 -25.94611799 43.841326 -24.4375 41.25 C-23.99986328 40.52039063 -23.56222656 39.79078125 -23.11132812 39.0390625 C-22.70205078 38.33007812 -22.29277344 37.62109375 -21.87109375 36.890625 C-21.48880615 36.24125977 -21.10651855 35.59189453 -20.71264648 34.92285156 C-19.83652707 32.5589199 -20.17806778 31.34057154 -21 29 C-26.10311344 28.15926507 -31.05219805 27.85629917 -36.22680664 27.87060547 C-37.01798386 27.86885315 -37.80916107 27.86710083 -38.62431335 27.86529541 C-41.21961714 27.8609216 -43.81485187 27.86379878 -46.41015625 27.8671875 C-48.22423821 27.86651324 -50.03832008 27.8655422 -51.85240173 27.86428833 C-55.64583195 27.86281747 -59.43923855 27.86494648 -63.23266602 27.86962891 C-68.08695636 27.8753299 -72.94119145 27.87204096 -77.79547977 27.86605644 C-81.53845127 27.86243779 -85.28140974 27.86359535 -89.02438164 27.86618423 C-90.81409143 27.86684968 -92.60380242 27.86603848 -94.39351082 27.86370468 C-96.89656828 27.8611563 -99.39953701 27.86504934 -101.90258789 27.87060547 C-102.63677948 27.86858124 -103.37097107 27.86655701 -104.12741089 27.86447144 C-108.18855098 27.88111411 -112.01524351 28.21402476 -116 29 Z M-127 38 C-128.54247603 40.15571193 -129.93783252 42.3012814 -131.3125 44.5625 C-131.74763916 45.26850342 -132.18277832 45.97450684 -132.63110352 46.7019043 C-138.12512102 55.70831665 -143.23086549 64.94010123 -148.390625 74.14013672 C-150.88135809 78.56617547 -153.40195818 82.97450567 -155.9375 87.375 C-156.361521 88.11661377 -156.78554199 88.85822754 -157.22241211 89.62231445 C-159.40835888 93.40702205 -161.69466323 97.08017319 -164.140625 100.703125 C-166.25829659 103.8414471 -168.16054421 106.9605897 -169.8125 110.375 C-170.21082031 111.18710938 -170.60914063 111.99921875 -171.01953125 112.8359375 C-172.09228922 115.10442304 -172.09228922 115.10442304 -173 118 C-169.5022543 119.74887285 -165.60523958 119.39627158 -161.75 119.5 C-160.47962891 119.58121094 -160.47962891 119.58121094 -159.18359375 119.6640625 C-154.31538458 119.77464906 -154.31538458 119.77464906 -150.12963867 117.54907227 C-147.57230949 114.63403652 -145.41359054 111.47793964 -143.8125 107.9375 C-143.53019531 107.32777344 -143.24789062 106.71804687 -142.95703125 106.08984375 C-142.64121094 105.40019531 -142.32539063 104.71054688 -142 104 C-139.67971153 99.17407458 -137.04996038 94.59551029 -134.3125 90 C-133.42521428 88.49903294 -132.53850478 86.9977251 -131.65234375 85.49609375 C-131.21003418 84.7469873 -130.76772461 83.99788086 -130.31201172 83.22607422 C-128.31973378 79.84580064 -126.33894904 76.4593096 -124.375 73.0625 C-123.72273438 71.93972656 -123.07046875 70.81695312 -122.3984375 69.66015625 C-120.84489406 67.20584184 -120.84489406 67.20584184 -121 65 C-120.34 65 -119.68 65 -119 65 C-116.80961328 61.79732301 -114.87121139 58.79982077 -115.15625 54.81640625 C-117.02796386 48.56621889 -120.74910172 42.90645849 -125 38 C-125.66 38 -126.32 38 -127 38 Z M-11 40.5625 C-14.06122444 44.29336728 -17 48.02502681 -17 53 C-17.66 53 -18.32 53 -19 53 C-15.22118216 64.33645353 -8.42158967 74.88620773 -2.31640625 85.08984375 C-0.39460126 88.30783992 1.42312408 91.56738327 3.1875 94.875 C5.64933847 99.457914 8.36132139 103.83532291 11.19140625 108.19921875 C13 111 13 111 13.96508789 113.09423828 C15.12899132 115.4179315 16.15314622 117.16414759 18 119 C21.48290811 119.97925243 24.72974712 119.76332601 28.3125 119.5 C29.24384766 119.46390625 30.17519531 119.4278125 31.13476562 119.390625 C33.42741807 119.29656746 35.71157091 119.16539029 38 119 C39.18938608 115.49580794 39.0476695 115.10162016 37.33984375 111.4609375 C36.55185308 110.09151844 35.75026071 108.72986453 34.9375 107.375 C34.51919922 106.65642822 34.10089844 105.93785645 33.66992188 105.19750977 C32.45887319 103.12412537 31.23212754 101.06090816 30 99 C29.46503906 98.09378906 28.93007813 97.18757813 28.37890625 96.25390625 C26.32178657 92.7981783 24.22491397 89.36735948 22.125 85.9375 C16.53637306 76.75439676 11.26269025 67.40825415 6.04882812 58.00756836 C4.92078157 55.97750164 3.7869948 53.95061197 2.64697266 51.92724609 C1.54280227 49.96474936 0.45404175 47.99350778 -0.61962891 46.01416016 C-1.13315918 45.09812012 -1.64668945 44.18208008 -2.17578125 43.23828125 C-2.62477783 42.42012939 -3.07377441 41.60197754 -3.53637695 40.7590332 C-4.26087036 39.88831177 -4.26087036 39.88831177 -5 39 C-8.89764918 38.58957064 -8.89764918 38.58957064 -11 40.5625 Z M-95 61 C-95.33 61.66 -95.66 62.32 -96 63 C-93.78921656 68.61276526 -90.75775209 74.27250543 -87 79 C-83.28636987 80.44290004 -79.24449903 80.19740188 -75.3125 80.23828125 C-74.20322144 80.25038887 -74.20322144 80.25038887 -73.0715332 80.26274109 C-71.51157955 80.27653698 -69.95159628 80.28727913 -68.39160156 80.29516602 C-66.79711052 80.30672266 -65.20265925 80.32723241 -63.60839844 80.35668945 C-61.30116572 80.39930137 -58.99507695 80.41552109 -56.6875 80.42578125 C-55.97698486 80.44328934 -55.26646973 80.46079742 -54.53442383 80.47883606 C-51.13166261 80.46392203 -49.34184437 80.26816222 -46.62817383 78.1394043 C-44.75703372 75.68074472 -43.18446676 73.20419801 -41.6875 70.5 C-41.15511719 69.5615625 -40.62273437 68.623125 -40.07421875 67.65625 C-38.62654458 64.82622131 -38.62654458 64.82622131 -40 61 C-58.15 61 -76.3 61 -95 61 Z M-109 70 C-110.83780938 72.63090216 -112.42686495 75.21196329 -114 78 C-114.53351074 78.93811523 -115.06702148 79.87623047 -115.61669922 80.84277344 C-117.4042257 84.01260645 -119.17326025 87.19215197 -120.9375 90.375 C-124.75639379 97.25976627 -128.62880706 104.08794119 -132.71313477 110.81884766 C-134.28828983 113.48863239 -135.67351143 116.19963524 -137 119 C-133.4594571 119.2335806 -129.92089932 119.37479801 -126.375 119.5 C-125.37597656 119.56703125 -124.37695312 119.6340625 -123.34765625 119.703125 C-117.78278567 119.92880507 -117.78278567 119.92880507 -113.05786133 117.37475586 C-111.4904063 115.32161054 -110.21996394 113.27462541 -109 111 C-108.43152344 110.05253906 -107.86304688 109.10507813 -107.27734375 108.12890625 C-106.83519531 107.28199219 -106.39304687 106.43507812 -105.9375 105.5625 C-103.71114385 101.33828214 -101.39905542 97.18738884 -98.98046875 93.0703125 C-97.78795137 90.55224792 -97.16281233 88.80444235 -97 86 C-98.00129001 83.44369799 -99.01900637 81.20683928 -100.3125 78.8125 C-100.63412109 78.18408203 -100.95574219 77.55566406 -101.28710938 76.90820312 C-102.65796551 74.27627193 -103.89063363 72.10936637 -106 70 C-106.99 70 -107.98 70 -109 70 Z M-29 70 C-30.15416506 72.05821081 -31.29835847 74.12099472 -32.4375 76.1875 C-33.39462891 77.91033203 -33.39462891 77.91033203 -34.37109375 79.66796875 C-35.8574165 82.70833639 -36.69994986 84.67169462 -37 88 C-36.03905558 90.75060862 -36.03905558 90.75060862 -34.4296875 93.4921875 C-33.8625 94.52730469 -33.2953125 95.56242187 -32.7109375 96.62890625 C-32.10507812 97.70011719 -31.49921875 98.77132812 -30.875 99.875 C-30.29234375 100.93847656 -29.7096875 102.00195312 -29.109375 103.09765625 C-27.96495664 105.16325441 -26.79745665 107.21626385 -25.60522461 109.25463867 C-24.63643774 110.91152207 -23.70135505 112.58972214 -22.83422852 114.30200195 C-21.68650204 116.53453267 -21.68650204 116.53453267 -19 119 C-15.35148522 119.8217103 -11.90266779 119.66455189 -8.1875 119.4375 C-7.20845703 119.40591797 -6.22941406 119.37433594 -5.22070312 119.34179688 C-2.81071797 119.2595047 -0.40691407 119.1446501 2 119 C2.17594409 114.31143399 1.21767399 112.20562119 -1.375 108.25 C-2.11379133 107.09881722 -2.85067645 105.94640952 -3.5859375 104.79296875 C-3.9787793 104.18114746 -4.37162109 103.56932617 -4.77636719 102.93896484 C-6.92965534 99.52687096 -8.96223421 96.04440445 -11 92.5625 C-11.41733398 91.85134033 -11.83466797 91.14018066 -12.26464844 90.4074707 C-16.23011164 83.63557321 -20.12755227 76.82545955 -24 70 C-25.65 70 -27.3 70 -29 70 Z M-74 93 C-75.45834448 94.52925459 -75.45834448 94.52925459 -76 97 C-74.90409289 99.80362999 -73.26807462 102.23790036 -71.625 104.75 C-70.96757812 105.79607422 -70.96757812 105.79607422 -70.296875 106.86328125 C-69.21220395 108.58460705 -68.10792139 110.29354637 -67 112 C-60.09636638 103.89659401 -60.09636638 103.89659401 -57 94 C-58.18852855 92.58225162 -58.18852855 92.58225162 -61.59765625 92.90234375 C-63.08596867 92.9090178 -64.57426432 92.92097817 -66.0625 92.9375 C-67.20041992 92.94426758 -67.20041992 92.94426758 -68.36132812 92.95117188 C-70.24091871 92.9629932 -72.12046899 92.98092922 -74 93 Z M-91 102 C-92.17176518 104.12232979 -93.33754785 106.24757791 -94.5 108.375 C-94.83386719 108.97828125 -95.16773438 109.5815625 -95.51171875 110.203125 C-97.38773938 113.41414777 -97.38773938 113.41414777 -98 117 C-98.66 117.66 -99.32 118.32 -100 119 C-93.4 119 -86.8 119 -80 119 C-78.86768536 113.3384268 -79.33812995 112.46249283 -82.125 107.6875 C-82.72570312 106.61886719 -83.32640625 105.55023438 -83.9453125 104.44921875 C-85.76779193 101.71542897 -85.76779193 101.71542897 -88.7421875 101.64453125 C-89.48726562 101.76183594 -90.23234375 101.87914062 -91 102 Z M-49 105 C-51.07123575 107.92862799 -51.07123575 107.92862799 -52.8125 111.125 C-53.41707031 112.17945313 -54.02164063 113.23390625 -54.64453125 114.3203125 C-56.15045708 116.7969451 -56.15045708 116.7969451 -56 119 C-49.4 119 -42.8 119 -36 119 C-34.87213434 114.48853734 -35.49000049 113.52182991 -37.75585938 109.671875 C-38.34077148 108.72054687 -38.34077148 108.72054687 -38.9375 107.75 C-39.32357422 107.1003125 -39.70964844 106.450625 -40.10742188 105.78125 C-41.06058418 104.18087871 -42.02885924 102.5895258 -43 101 C-45.34797695 101 -47.39640208 103.5719785 -49 105 Z M-172 132 C-170.46250346 136.16536052 -168.44345417 139.96570079 -166.25 143.8125 C-165.86368408 144.49554199 -165.47736816 145.17858398 -165.0793457 145.88232422 C-160.92343351 153.19795083 -156.64394825 160.44159016 -152.38378906 167.69677734 C-147.77866317 175.57619 -143.36355715 183.54582393 -139.08276367 191.60595703 C-136.39683986 196.62013018 -133.51681585 201.39157742 -130.30224609 206.0859375 C-128.77154283 208.33579006 -127.36620914 210.64708426 -126 213 C-123.20661646 209.60230832 -120.68645929 206.14005255 -118.3125 202.4375 C-117.71050781 201.50808594 -117.10851562 200.57867187 -116.48828125 199.62109375 C-115.17776111 197.31306484 -114.33759039 195.61489505 -114 193 C-114.33 192.34 -114.66 191.68 -115 191 C-115.66 191 -116.32 191 -117 191 C-117.144375 190.236875 -117.28875 189.47375 -117.4375 188.6875 C-118.27250522 184.6980306 -119.16775719 182.80545015 -122 180 C-122.91216474 178.57467831 -123.77573153 177.11764552 -124.6015625 175.640625 C-125.08778076 174.77880615 -125.57399902 173.9169873 -126.07495117 173.02905273 C-126.58646729 172.11196533 -127.0979834 171.19487793 -127.625 170.25 C-131.73059588 162.95847676 -135.89258832 155.72128341 -140.32080078 148.62011719 C-142.05471644 145.79381011 -143.45986265 143.29725636 -144 140 C-144.66 140 -145.32 140 -146 140 C-146.12375 139.1646875 -146.12375 139.1646875 -146.25 138.3125 C-147.23609434 135.27204246 -148.88586218 133.37039695 -151 131 C-153.79059162 129.60470419 -156.13731688 129.83026646 -159.25 129.8125 C-160.92835938 129.79123047 -160.92835938 129.79123047 -162.640625 129.76953125 C-166.07764584 130.00532687 -168.79530445 130.77153337 -172 132 Z M-135 132 C-133.36585984 136.47010827 -131.13729696 140.54960397 -128.8125 144.6875 C-128.38904297 145.44409912 -127.96558594 146.20069824 -127.52929688 146.98022461 C-126.02563166 149.65697138 -124.51372595 152.3289296 -123 155 C-122.3714209 156.11084961 -121.7428418 157.22169922 -121.09521484 158.36621094 C-119.40825883 161.34382227 -117.71366086 164.31698591 -116.01425171 167.2875061 C-115.3384087 168.47026696 -114.66427235 169.65400466 -113.99185181 170.8387146 C-113.04151554 172.51137331 -112.08341697 174.17961455 -111.125 175.84765625 C-110.57070312 176.81711182 -110.01640625 177.78656738 -109.4453125 178.78540039 C-108.19053709 181.11498462 -108.19053709 181.11498462 -106 182 C-104.44842617 179.32916967 -102.93981028 176.63630108 -101.4375 173.9375 C-100.99986328 173.18533203 -100.56222656 172.43316406 -100.11132812 171.65820312 C-98.05284424 167.91403165 -96.99531803 165.63541035 -97.02734375 161.2890625 C-98.02545646 157.91391831 -99.24283158 155.40423632 -101.125 152.4375 C-103.19694561 149.07907997 -105.16629165 145.75359228 -106.84375 142.18359375 C-107.14265137 141.54945557 -107.44155273 140.91531738 -107.74951172 140.26196289 C-108.58630482 138.45840074 -109.40684083 136.64732247 -110.2265625 134.8359375 C-111.75878971 131.91450881 -111.75878971 131.91450881 -114.26953125 130.6171875 C-117.59942376 129.86450793 -120.64821366 129.73539343 -124.0625 129.75 C-125.27035156 129.74484375 -126.47820312 129.7396875 -127.72265625 129.734375 C-130.7683189 129.98122251 -132.449895 130.39744025 -135 132 Z M-98 132 C-96.68925635 136.46182436 -94.92933989 139.99618757 -92.375 143.875 C-91.74335938 144.84179688 -91.11171875 145.80859375 -90.4609375 146.8046875 C-89.97882813 147.52914062 -89.49671875 148.25359375 -89 149 C-86.02430637 146.21190445 -83.83951712 143.43585821 -81.75 139.9375 C-81.22921875 139.08027344 -80.7084375 138.22304687 -80.171875 137.33984375 C-78.77609471 134.98908559 -78.77609471 134.98908559 -79 132 C-84.73835205 128.66035862 -92.16044439 128.88557034 -98 132 Z M-55 132 C-54.21085079 133.60540659 -53.41858235 135.20928016 -52.625 136.8125 C-52.18414062 137.70582031 -51.74328125 138.59914062 -51.2890625 139.51953125 C-49.98133095 142.14556381 -49.98133095 142.14556381 -48 145 C-47.34 145 -46.68 145 -46 145 C-46 145.66 -46 146.32 -46 147 C-45.01 147 -44.02 147 -43 147 C-41.44870495 144.8940354 -40.12351225 142.87244957 -38.8125 140.625 C-38.44447266 140.02171875 -38.07644531 139.4184375 -37.69726562 138.796875 C-35.65752013 135.62048244 -35.65752013 135.62048244 -35 132 C-42.18778031 129.19501256 -47.85125229 129.66571503 -55 132 Z M-21 130 C-21.38929688 130.81339844 -21.77859375 131.62679687 -22.1796875 132.46484375 C-22.73914063 133.61082031 -23.29859375 134.75679687 -23.875 135.9375 C-24.17438477 136.55850586 -24.47376953 137.17951172 -24.78222656 137.81933594 C-26.60257965 141.50195214 -28.57483871 144.95210218 -30.8671875 148.36328125 C-36.15141588 155.55381488 -36.15141588 155.55381488 -37.734375 163.9140625 C-36.40510838 166.56418266 -34.83623574 168.6748713 -33 171 C-31.86549889 173.02496766 -30.76090231 175.06699264 -29.6875 177.125 C-28.79343863 178.75097559 -27.89826038 180.37634035 -27 182 C-24.06366216 178.51134527 -21.770186 175.01608581 -19.6171875 171 C-18.70259766 169.2984375 -18.70259766 169.2984375 -17.76953125 167.5625 C-17.45838379 166.97726563 -17.14723633 166.39203125 -16.82666016 165.7890625 C-15.87604519 164.0019649 -14.9172002 162.21947937 -13.95703125 160.4375 C-10.16307836 153.36604326 -10.16307836 153.36604326 -7 146 C-6.34 146 -5.68 146 -5 146 C-1.535 139.07 -1.535 139.07 2 132 C-3.25319039 130.15297651 -3.25319039 130.15297651 -8.3046875 129.8046875 C-9.05234375 129.81113281 -9.8 129.81757813 -10.5703125 129.82421875 C-11.33085937 129.84097656 -12.09140625 129.85773438 -12.875 129.875 C-13.65875 129.88402344 -14.4425 129.89304688 -15.25 129.90234375 C-17.16680055 129.92571937 -19.08344191 129.96158347 -21 130 Z M2 130 C3 132 3 132 3 132 Z M18 130 C14.0791043 136.79676189 14.0791043 136.79676189 11 144 C10.34 144 9.68 144 9 144 C8.68474365 144.59611084 8.3694873 145.19222168 8.04467773 145.80639648 C-0.47820501 161.86610649 -9.51548102 177.49246532 -19 193 C-18.34 193.33 -17.68 193.66 -17 194 C-16.7525 194.78375 -16.505 195.5675 -16.25 196.375 C-14.4534276 201.58505996 -11.70797853 206.21420146 -9 211 C-7.68 211 -6.36 211 -5 211 C-4.64397705 210.36312256 -4.2879541 209.72624512 -3.92114258 209.07006836 C-0.60468235 203.1388394 2.71514357 197.20950993 6.03903198 191.28244019 C7.64198139 188.42386588 9.24340915 185.56446986 10.84228516 182.70361328 C12.55812988 179.63382657 14.27856835 176.56665638 16 173.5 C16.51457764 172.57695068 17.02915527 171.65390137 17.55932617 170.70288086 C20.36175129 165.7220561 23.33552789 160.94650407 26.54492188 156.21923828 C28.98885464 152.49183076 31.11538972 148.59765803 33.25 144.6875 C33.683125 143.90310547 34.11625 143.11871094 34.5625 142.31054688 C36.43903101 138.90209472 38.27630934 135.48876937 40 132 C35.37183267 129.64417935 31.24465865 129.76478531 26.1875 129.875 C25.39923828 129.88402344 24.61097656 129.89304688 23.79882812 129.90234375 C21.86575334 129.92577496 19.9328362 129.96164162 18 130 Z M-67 139 C-69.61715838 141.38923768 -71.36199113 143.97100751 -73.1875 147 C-73.71730469 147.86625 -74.24710938 148.7325 -74.79296875 149.625 C-76.22653448 152.0017173 -76.22653448 152.0017173 -76 155 C-76.66 155.66 -77.32 156.32 -78 157 C-70.74 157 -63.48 157 -56 157 C-56.66 156.67 -57.32 156.34 -58 156 C-57.87625 155.21625 -57.7525 154.4325 -57.625 153.625 C-58.17408923 148.31713746 -60.7548915 144.19258543 -64 140 C-64.99 139.67 -65.98 139.34 -67 139 Z M-85.8125 169.875 C-87.16260712 171.8852657 -87.16260712 171.8852657 -87 174 C-87.66 174 -88.32 174 -89 174 C-90.67497988 176.10003666 -90.67497988 176.10003666 -92.25 178.75 C-93.09304687 180.07257813 -93.09304687 180.07257813 -93.953125 181.421875 C-94.29859375 182.27265625 -94.6440625 183.1234375 -95 184 C-94.34 185.32 -93.68 186.64 -93 188 C-75.51 188 -58.02 188 -40 188 C-39.34 186.68 -38.68 185.36 -38 184 C-39.14223608 181.56523362 -40.26365169 179.57991404 -41.75 177.375 C-42.12382812 176.78976563 -42.49765625 176.20453125 -42.8828125 175.6015625 C-44.44293106 173.1894643 -45.96429447 171.03570553 -48 169 C-51.12303142 168.62646332 -51.12303142 168.62646332 -54.80078125 168.5859375 C-55.47417038 168.56657135 -56.14755951 168.5472052 -56.84135437 168.5272522 C-58.99827335 168.46744394 -61.15524966 168.42113925 -63.3125 168.375 C-64.7545806 168.33680776 -66.1966387 168.2977553 -67.63867188 168.2578125 C-71.42555422 168.15656788 -75.21233198 168.06727069 -79 168 C-79.93610107 167.9582666 -80.87220215 167.9165332 -81.83666992 167.87353516 C-84.18287617 167.76568753 -84.18287617 167.76568753 -85.8125 169.875 Z M-108.765625 208.3515625 C-109.25546875 209.10179687 -109.7453125 209.85203125 -110.25 210.625 C-110.75015625 211.38039063 -111.2503125 212.13578125 -111.765625 212.9140625 C-113.14066441 215.07034216 -113.14066441 215.07034216 -114 218 C-109.57642777 221.36074865 -105.6015865 221.38081891 -100.26245117 221.2487793 C-98.9592543 221.23480606 -98.9592543 221.23480606 -97.62973022 221.22055054 C-94.76707381 221.18626203 -91.90527313 221.13035392 -89.04296875 221.07421875 C-87.05473129 221.04617713 -85.06647434 221.01948763 -83.07820129 220.99409485 C-77.85174735 220.92371629 -72.62576021 220.83498551 -67.3996582 220.74243164 C-62.06412524 220.65118782 -56.72835505 220.57730068 -51.39257812 220.50195312 C-40.92808022 220.351623 -30.46399334 220.18190405 -20 220 C-18.96735341 216.75949261 -18.96735341 216.75949261 -20.14453125 213.5625 C-20.69496094 212.716875 -21.24539063 211.87125 -21.8125 211 C-24.95905546 206.09705373 -24.95905546 206.09705373 -25.94921875 203.75 C-26.82979067 201.86803785 -26.82979067 201.86803785 -28.63490295 201.40267944 C-31.74112639 200.87381644 -34.74060695 200.83988658 -37.89233398 200.80712891 C-38.57739014 200.79895142 -39.26244629 200.79077393 -39.96826172 200.78234863 C-42.22753035 200.75760433 -44.4867368 200.7410105 -46.74609375 200.7265625 C-47.51949663 200.72123882 -48.29289951 200.71591515 -49.08973885 200.71043015 C-53.18033988 200.68375132 -57.2709109 200.66435626 -61.36157227 200.64990234 C-64.74400765 200.63654398 -68.12584247 200.60865014 -71.50805664 200.56787109 C-75.59760674 200.51857097 -79.68661082 200.49378568 -83.77644539 200.48667526 C-85.33259105 200.47996341 -86.88872454 200.4647428 -88.44470024 200.44078445 C-90.62320392 200.40914325 -92.79959813 200.40909237 -94.97827148 200.41650391 C-96.21641098 200.40841705 -97.45455048 200.4003302 -98.73020935 200.39199829 C-103.76009629 201.32728137 -105.80918307 204.41400046 -108.765625 208.3515625 Z " fill="#151515" transform="translate(293,48)"/>
<path d="M0 0 C2.5 0.1875 2.5 0.1875 5 1 C7.10136625 4.15204938 7.29232539 5.21187976 6.69921875 8.83984375 C5.78251315 11.67190071 4.3322506 14.00639773 2.8125 16.5625 C0.40936058 20.60870361 0.40936058 20.60870361 0.3125 25.1875 C1.27173062 26.7862177 2.26183413 28.36946856 3.33984375 29.890625 C7.11534377 35.37085217 7.11534377 35.37085217 6.3125 39.75 C5.879375 40.8225 5.44625 41.895 5 43 C5 44.32 5 45.64 5 47 C3 47 1 47 -1 47 C-2.32 44.69 -3.64 42.38 -5 40 C-6.98 40 -8.96 40 -11 40 C-11.4021875 41.0828125 -11.4021875 41.0828125 -11.8125 42.1875 C-12.98982498 44.97590126 -14.39145884 47.44095724 -16 50 C-16.66 49.67 -17.32 49.34 -18 49 C-18.625 46.4375 -18.625 46.4375 -19 44 C-19.99 44 -20.98 44 -22 44 C-22.33 44.99 -22.66 45.98 -23 47 C-23.66 46.67 -24.32 46.34 -25 46 C-24.7215625 45.071875 -24.7215625 45.071875 -24.4375 44.125 C-23.76313824 41.95839822 -23.76313824 41.95839822 -25 40 C-24.00350509 38.23202517 -23.00068408 36.46548043 -21.91015625 34.75390625 C-20.76969717 32.8855307 -20.76969717 32.8855307 -21 30 C-26.37047062 29.09952759 -31.52511372 28.86224255 -36.96459961 28.88647461 C-37.83368958 28.88632858 -38.70277954 28.88618256 -39.59820557 28.8860321 C-42.44961101 28.88672464 -45.30094982 28.894486 -48.15234375 28.90234375 C-50.13774073 28.90421027 -52.12313816 28.90563307 -54.10853577 28.90663147 C-59.31826055 28.91043819 -64.52795719 28.92025265 -69.7376709 28.93133545 C-75.0601361 28.94158931 -80.38260588 28.94613759 -85.70507812 28.95117188 C-96.13673108 28.96187665 -106.56836319 28.97893081 -117 29 C-117.268125 29.78375 -117.53625 30.5675 -117.8125 31.375 C-119 34 -119 34 -122 36 C-122.99 36 -123.98 36 -125 36 C-125.33 36.66 -125.66 37.32 -126 38 C-126.33 37.01 -126.66 36.02 -127 35 C-127.33 34.67 -127.66 34.34 -128 34 C-129.155 34 -130.31 34 -131.5 34 C-132.655 34 -133.81 34 -135 34 C-135.33 33.67 -135.66 33.34 -136 33 C-136.33 33.66 -136.66 34.32 -137 35 C-137.99 35 -138.98 35 -140 35 C-138.74194623 30.49197399 -137.09592835 27.5087188 -134 24 C-134.598125 23.154375 -135.19625 22.30875 -135.8125 21.4375 C-138.87968968 16.82034258 -141 12.65989663 -141 7 C-141.66 7 -142.32 7 -143 7 C-142.67 5.35 -142.34 3.7 -142 2 C-138.32390223 1.05471772 -135.61184249 0.70344116 -132 2 C-128.71636088 5.38021674 -125 10.10422023 -125 15 C-122.08276884 15.83898723 -119.51501063 16.11788959 -116.48376465 16.0957489 C-115.58373215 16.09159973 -114.68369965 16.08745056 -113.75639343 16.08317566 C-112.77652969 16.07337173 -111.79666595 16.06356781 -110.78710938 16.0534668 C-109.74931839 16.04707184 -108.7115274 16.04067688 -107.64228821 16.03408813 C-104.20937713 16.01129278 -100.77659185 15.98068581 -97.34375 15.94921875 C-94.96008438 15.92998924 -92.57641736 15.91093334 -90.19274902 15.89204407 C-85.19600535 15.8510528 -80.19931997 15.8058261 -75.20263672 15.75805664 C-68.79330323 15.69742327 -62.38395055 15.65053356 -55.97447968 15.60722637 C-51.0519941 15.57190143 -46.12961841 15.52765921 -41.20722961 15.48087502 C-38.8437203 15.45980481 -36.48018051 15.44190992 -34.11662292 15.4272213 C-30.8152144 15.40569217 -27.51415623 15.37178213 -24.21289062 15.3347168 C-23.23302689 15.33098557 -22.25316315 15.32725433 -21.24360657 15.32341003 C-20.34357407 15.31080139 -19.44354156 15.29819275 -18.51623535 15.28520203 C-17.736063 15.27837245 -16.95589066 15.27154287 -16.15207672 15.26450634 C-13.67856438 14.96049316 -12.10658372 14.32375579 -10 13 C-8.60699818 11.04109119 -7.27754554 9.0360882 -6 7 C-4.08652339 4.52373615 -2.21189676 2.21189676 0 0 Z " fill="#1D1D1D" transform="translate(293,48)"/>
<path d="M0 0 C0.66 0 1.32 0 2 0 C2.33 1.32 2.66 2.64 3 4 C3.66 4 4.32 4 5 4 C5.54974487 4.98673706 5.54974487 4.98673706 6.1105957 5.9934082 C7.84297312 9.1006626 9.57740762 12.2067608 11.3125 15.3125 C11.94172363 16.43922119 12.57094727 17.56594238 13.21923828 18.72680664 C17.65509618 26.6500623 22.16340308 34.52643578 26.7980957 42.33520508 C30 47.78542284 30 47.78542284 30 50 C28.68 49.67 27.36 49.34 26 49 C25.67 47.68 25.34 46.36 25 45 C24.01 45 23.02 45 22 45 C22 45.66 22 46.32 22 47 C21.34 47 20.68 47 20 47 C19.67 48.65 19.34 50.3 19 52 C14.53612488 48.22532175 12.11045642 43.282199 9.3125 38.25 C8.79010742 37.32074707 8.26771484 36.39149414 7.72949219 35.43408203 C6.66381916 33.53778223 5.60049758 31.64015903 4.53955078 29.74121094 C3.11519349 27.20510506 1.67068588 24.6821906 0.21484375 22.1640625 C-0.20385986 21.43541992 -0.62256348 20.70677734 -1.05395508 19.95605469 C-1.83474989 18.59751315 -2.61956938 17.24127454 -3.40893555 15.88769531 C-6 11.33924736 -6 11.33924736 -6 8 C-4.68 8.33 -3.36 8.66 -2 9 C-1.34 8.01 -0.68 7.02 0 6 C-0.66 5.67 -1.32 5.34 -2 5 C-1.34 3.35 -0.68 1.7 0 0 Z " fill="#111111" transform="translate(299,86)"/>
<path d="M0 0 C0.8125 1.625 0.8125 1.625 1 4 C-0.61466362 6.47956061 -1.76477919 8.1611855 -4 10 C-6.78062801 10.58177817 -8.68746755 10.76843681 -11.45239258 10.68115234 C-12.55076447 10.68246658 -12.55076447 10.68246658 -13.67132568 10.68380737 C-16.08016447 10.67964292 -18.4861821 10.6330532 -20.89453125 10.5859375 C-22.56888813 10.5747411 -24.24326472 10.566203 -25.91764832 10.56021118 C-30.31581284 10.53734731 -34.71278062 10.47844665 -39.11047363 10.4119873 C-43.6014792 10.35051115 -48.09267895 10.32318488 -52.58398438 10.29296875 C-61.38987095 10.22869965 -70.19478643 10.12635156 -79 10 C-78.67 9.01 -78.34 8.02 -78 7 C-76.64149933 7.0199855 -76.64149933 7.0199855 -75.2555542 7.04037476 C-66.72155685 7.16058415 -58.18784367 7.25194025 -49.65319443 7.31087303 C-45.26533655 7.34219003 -40.878178 7.38466795 -36.49072266 7.45263672 C-32.25667704 7.51781861 -28.02330408 7.55370327 -23.78879547 7.56926346 C-22.17316342 7.58035216 -20.55756832 7.60200674 -18.9422226 7.63438034 C-16.67909663 7.67793338 -14.41875089 7.68393537 -12.15527344 7.68115234 C-10.22334137 7.70113785 -10.22334137 7.70113785 -8.25238037 7.7215271 C-4.72588659 7.29575293 -4.72588659 7.29575293 -2.61529541 4.01992798 C-2.08224792 3.02335175 -1.54920044 2.02677551 -1 1 C-0.67 0.67 -0.34 0.34 0 0 Z " fill="#050505" transform="translate(269,89)"/>
<path d="M0 0 C2.12561242 3.45412018 2.54144577 5.97783144 2 10 C0.71000962 13.01735948 -0.79086991 15.56591933 -3 18 C-6.47098142 19.34589075 -7.9624692 19.43685507 -11.375 18 C-13 16 -13 16 -13.5 12.75 C-12.8716256 8.037192 -11.79145198 5.84767705 -9 2 C-5.64215742 0.06924052 -3.95109224 0 0 0 Z " fill="#0E0E0E" transform="translate(312,27)"/>
<path d="M0 0 C1.875 1.5625 1.875 1.5625 3 4 C2.90052454 9.37167511 1.55510022 12.96448083 -2 17 C-5.60544318 18.30409647 -7.28426072 18.26451234 -10.875 16.9375 C-13 15 -13 15 -13.5625 12.25 C-12.74280204 7.51396735 -11.0547933 3.52452406 -7.0625 0.5625 C-4.49360325 -0.13810821 -2.64743706 -0.40729801 0 0 Z " fill="#1A1A1A" transform="translate(152,298)"/>
<path d="M0 0 C2.64 4.62 5.28 9.24 8 14 C6.68 15.32 5.36 16.64 4 18 C2.68 18 1.36 18 0 18 C0.33 20.31 0.66 22.62 1 25 C0.34 25 -0.32 25 -1 25 C-2.69140625 22.5859375 -2.69140625 22.5859375 -4.5625 19.375 C-5.18253906 18.33085937 -5.80257813 17.28671875 -6.44140625 16.2109375 C-7.99944203 13.00114951 -8.73375017 10.54506717 -9 7 C-7.8125 3.6875 -7.8125 3.6875 -6 1 C-3.79890052 0.06620022 -2.36707904 0 0 0 Z " fill="#0E0E0E" transform="translate(285,121)"/>
<path d="M0 0 C4.22825784 1.23931695 5.47729552 2.44111133 7.7421875 6.0859375 C9.16453512 9.27048571 9.21401034 11.65932917 8.625 15.0625 C7 17.0625 7 17.0625 4.625 18.0625 C1.41982265 18.19889053 -0.45326477 17.89759694 -2.87109375 15.70703125 C-5.44401793 12.52185315 -6.70961917 9.86948618 -6.875 5.75 C-6.71 4.533125 -6.545 3.31625 -6.375 2.0625 C-3.375 0.0625 -3.375 0.0625 0 0 Z " fill="#111111" transform="translate(303.375,297.9375)"/>
<path d="M0 0 C1.39935013 2.79870027 1.25265405 4.90498792 1 8 C-0.14453125 9.66015625 -0.14453125 9.66015625 -2 11 C-6.04861414 11.6833104 -9.94146791 11.59256805 -14 11 C-16.8125 8.875 -16.8125 8.875 -18 6 C-17.875 2.75 -17.875 2.75 -17 0 C-11.65110118 -2.67444941 -5.33312268 -2.53323327 0 0 Z " fill="#1A1A1A" transform="translate(76,167)"/>
<path d="M0 0 C4.18491525 0.72431225 5.51231534 2.26609964 8.05078125 5.55078125 C9.84099064 8.55390123 10.25 11.09621827 10.25 14.5625 C8.25 17.5625 8.25 17.5625 5.0625 18.25 C0.20170286 17.37346281 -1.4878051 15.58974437 -4.49609375 11.80078125 C-5.75 9.5625 -5.75 9.5625 -5.8125 5.6875 C-4.5278763 1.90919501 -3.94619359 0.80717596 0 0 Z " fill="#0D0D0D" transform="translate(144.75,27.4375)"/>
<path d="M0 0 C1.59134766 -0.04253906 1.59134766 -0.04253906 3.21484375 -0.0859375 C6.0625 0.375 6.0625 0.375 7.91796875 2.23828125 C9.33416594 4.88217156 9.5177065 6.41615778 9.0625 9.375 C7.9140625 11.00390625 7.9140625 11.00390625 6.0625 12.375 C3.25 12.7734375 3.25 12.7734375 0.0625 12.75 C-0.989375 12.75773438 -2.04125 12.76546875 -3.125 12.7734375 C-5.9375 12.375 -5.9375 12.375 -7.82421875 11.07421875 C-8.9375 9.375 -8.9375 9.375 -8.75 5.8125 C-7.40667069 0.12918368 -5.42424085 0.06574837 0 0 Z " fill="#111111" transform="translate(383.9375,165.625)"/>
<path d="M0 0 C29.7 0 59.4 0 90 0 C90 0.99 90 1.98 90 3 C60.3 3 30.6 3 0 3 C0 2.01 0 1.02 0 0 Z " fill="#070707" transform="translate(180,74)"/>
<path d="M0 0 C0.66 0 1.32 0 2 0 C-0.5163827 7.71690695 -0.5163827 7.71690695 -3.5625 9.5 C-4.366875 9.995 -5.17125 10.49 -6 11 C-6 11.66 -6 12.32 -6 13 C-9.63 12.67 -13.26 12.34 -17 12 C-12.57562077 3.62528217 -12.57562077 3.62528217 -9 2 C-6.375 2.75 -6.375 2.75 -4 4 C-3.34 4.33 -2.68 4.66 -2 5 C-2 4.01 -2 3.02 -2 2 C-1.34 2 -0.68 2 0 2 C0 1.34 0 0.68 0 0 Z " fill="#101010" transform="translate(330,202)"/>
<path d="M0 0 C0.66 0 1.32 0 2 0 C2.33 1.32 2.66 2.64 3 4 C3.66 4 4.32 4 5 4 C4.6875 7.375 4.6875 7.375 4 11 C3.01 11.66 2.02 12.32 1 13 C1.33 15.31 1.66 17.62 2 20 C1.01 20 0.02 20 -1 20 C-1.84114171 18.56705502 -2.67265687 17.12845595 -3.5 15.6875 C-3.9640625 14.88699219 -4.428125 14.08648437 -4.90625 13.26171875 C-6 11 -6 11 -6 8 C-4.68 8.33 -3.36 8.66 -2 9 C-1.34 8.01 -0.68 7.02 0 6 C-0.66 5.67 -1.32 5.34 -2 5 C-1.34 3.35 -0.68 1.7 0 0 Z " fill="#101010" transform="translate(299,86)"/>
<path d="M0 0 C1 3 1 3 0.18310547 4.94189453 C-0.25114746 5.66489746 -0.68540039 6.38790039 -1.1328125 7.1328125 C-1.60976563 7.93976563 -2.08671875 8.74671875 -2.578125 9.578125 C-3.08859375 10.41859375 -3.5990625 11.2590625 -4.125 12.125 C-5.10754671 13.77297516 -6.08932065 15.42141131 -7.0703125 17.0703125 C-7.55532227 17.88016602 -8.04033203 18.69001953 -8.54003906 19.52441406 C-10.77073575 23.30689975 -12.89241495 27.14788665 -15 31 C-15.99 30.67 -16.98 30.34 -18 30 C-15.5131754 24.8954653 -12.78158372 19.94748092 -10 15 C-9.34 15 -8.68 15 -8 15 C-7.79375 14.195625 -7.5875 13.39125 -7.375 12.5625 C-5.57139638 7.889527 -2.87884691 4.07383996 0 0 Z " fill="#030303" transform="translate(321,219)"/>
<path d="M0 0 C0.99 0.33 1.98 0.66 3 1 C3 1.99 3 2.98 3 4 C3.66 4 4.32 4 5 4 C5.33 6.31 5.66 8.62 6 11 C4.35 9.35 2.7 7.7 1 6 C-1.79285592 8.63769726 -4.06336342 11.09595032 -6.1875 14.3125 C-6.785625 15.199375 -7.38375 16.08625 -8 17 C-8.66 17 -9.32 17 -10 17 C-9.16150733 11.75942078 -5.88818932 7.33228399 -3 3 C-2.34 3 -1.68 3 -1 3 C-0.67 2.01 -0.34 1.02 0 0 Z " fill="#0B0B0B" transform="translate(248,144)"/>
<path d="M0 0 C0.33 0.66 0.66 1.32 1 2 C0.22265625 3.7265625 0.22265625 3.7265625 -0.9375 5.625 C-1.618125 6.73875 -2.29875 7.8525 -3 9 C2.94 9.99 2.94 9.99 9 11 C8.67 11.66 8.34 12.32 8 13 C3.38 13 -1.24 13 -6 13 C-6 7.89685455 -5.95896045 7.32455555 -3 3.6875 C-2.443125 2.99011719 -1.88625 2.29273438 -1.3125 1.57421875 C-0.6628125 0.79498047 -0.6628125 0.79498047 0 0 Z " fill="#0B0B0B" transform="translate(123,157)"/>
<path d="M0 0 C0.66 0 1.32 0 2 0 C2 0.99 2 1.98 2 3 C1.34 3 0.68 3 0 3 C-0.24492187 3.83789062 -0.48984375 4.67578125 -0.7421875 5.5390625 C-2.161461 9.44426847 -4.01857766 12.80971271 -6.125 16.375 C-6.49753906 17.01566406 -6.87007813 17.65632813 -7.25390625 18.31640625 C-8.16434002 19.88048477 -9.08148191 21.44065534 -10 23 C-12 20 -12 20 -11.8125 18 C-11 16 -11 16 -9.67578125 14.7578125 C-7.40912297 12.38019892 -5.99146291 9.72960472 -4.375 6.875 C-1.08333333 1.08333333 -1.08333333 1.08333333 0 0 Z " fill="#060606" transform="translate(302,189)"/>
<path d="M0 0 C0.99 0.33 1.98 0.66 3 1 C0.33333333 6.33333333 -2.33333333 11.66666667 -5 17 C-6.32 17 -7.64 17 -9 17 C-8.35826346 12.88473708 -6.13013842 9.69611565 -3.9375 6.25 C-3.56044922 5.64800781 -3.18339844 5.04601562 -2.79492188 4.42578125 C-1.86806837 2.94750857 -0.93467611 1.47333911 0 0 Z " fill="#212121" transform="translate(161,133)"/>
<path d="M0 0 C0.66 0.66 1.32 1.32 2 2 C1.63911108 5.81511148 -0.50445745 8.98246997 -2.375 12.25 C-2.98085938 13.32765625 -3.58671875 14.4053125 -4.2109375 15.515625 C-5.09652344 16.74539062 -5.09652344 16.74539062 -6 18 C-6.99 18 -7.98 18 -9 18 C-7.45614871 13.85967154 -5.48971062 10.06446947 -3.375 6.1875 C-3.05015625 5.59001953 -2.7253125 4.99253906 -2.390625 4.37695312 C-1.59620849 2.91662865 -0.79844624 1.45812509 0 0 Z " fill="#050505" transform="translate(285,196)"/>
<path d="M0 0 C0 0.99 0 1.98 0 3 C-8.58 3 -17.16 3 -26 3 C-26.33 2.34 -26.66 1.68 -27 1 C-23.4375865 0.83144992 -19.87505676 0.66549228 -16.3125 0.5 C-15.30509766 0.45230469 -14.29769531 0.40460938 -13.25976562 0.35546875 C-11.79506836 0.28779297 -11.79506836 0.28779297 -10.30078125 0.21875 C-9.40528564 0.17685547 -8.50979004 0.13496094 -7.5871582 0.09179688 C-5.05557612 0.00197194 -2.53292812 -0.01596803 0 0 Z " fill="#020202" transform="translate(336,166)"/>
<path d="M0 0 C0.33 0.99 0.66 1.98 1 3 C7.93 3.33 14.86 3.66 22 4 C21.67 4.66 21.34 5.32 21 6 C17.37515001 6.08681476 13.75056557 6.14032721 10.125 6.1875 C8.57619141 6.22520508 8.57619141 6.22520508 6.99609375 6.26367188 C6.00996094 6.27333984 5.02382812 6.28300781 4.0078125 6.29296875 C2.64100342 6.31653442 2.64100342 6.31653442 1.24658203 6.34057617 C0.50520996 6.22818604 -0.23616211 6.1157959 -1 6 C-1.66 5.01 -2.32 4.02 -3 3 C-2.01 2.01 -1.02 1.02 0 0 Z " fill="#030303" transform="translate(156,163)"/>
<path d="M0 0 C0.99 0 1.98 0 3 0 C4.70400669 2.92821855 6.38524739 5.868888 8.0625 8.8125 C8.54783203 9.64587891 9.03316406 10.47925781 9.53320312 11.33789062 C9.98759766 12.14033203 10.44199219 12.94277344 10.91015625 13.76953125 C11.33433838 14.50792236 11.75852051 15.24631348 12.19555664 16.00708008 C13 18 13 18 12 21 C7 15.5 7 15.5 7 11 C6.34 11 5.68 11 5 11 C3.35 7.37 1.7 3.74 0 0 Z " fill="#040404" transform="translate(145,227)"/>
<path d="M0 0 C0.66 0.33 1.32 0.66 2 1 C1.34 2.32 0.68 3.64 0 5 C5.94 5 11.88 5 18 5 C17.67 5.66 17.34 6.32 17 7 C10.73 7 4.46 7 -2 7 C-3 4 -3 4 -2 1 C-1.34 0.67 -0.68 0.34 0 0 Z " fill="#050505" transform="translate(237,162)"/>
<path d="M0 0 C5.94 0 11.88 0 18 0 C18 0.66 18 1.32 18 2 C16.87980469 2.00257813 15.75960938 2.00515625 14.60546875 2.0078125 C13.13277242 2.04533343 11.66011689 2.08448088 10.1875 2.125 C9.08051758 2.12113281 9.08051758 2.12113281 7.95117188 2.1171875 C5.49926004 2.1439914 5.49926004 2.1439914 2 3 C-0.10258137 5.90918352 -0.10258137 5.90918352 -1 9 C-1.66 8.67 -2.32 8.34 -3 8 C-1.125 2.25 -1.125 2.25 0 0 Z " fill="#010101" transform="translate(345,176)"/>
<path d="M0 0 C0.99 0.33 1.98 0.66 3 1 C3.33 2.32 3.66 3.64 4 5 C9.28 5 14.56 5 20 5 C20.33 5.66 20.66 6.32 21 7 C18.26916098 7.13548815 15.54508193 7.23429855 12.8125 7.3125 C12.04357422 7.35439453 11.27464844 7.39628906 10.48242188 7.43945312 C6.03371827 7.53491887 4.52445124 7.43312555 0.94921875 4.48046875 C0.30597656 3.66191406 -0.33726563 2.84335938 -1 2 C-0.67 1.34 -0.34 0.68 0 0 Z " fill="#040404" transform="translate(85,170)"/>
<path d="M0 0 C3 1 3 1 5 4 C7.93597539 4.38384509 10.68027373 4.603843 13.625 4.6875 C14.82769531 4.73874023 14.82769531 4.73874023 16.0546875 4.79101562 C18.03596318 4.87356878 20.01796037 4.93845916 22 5 C22 5.66 22 6.32 22 7 C15.73 7 9.46 7 3 7 C2.67 5.68 2.34 4.36 2 3 C1.34 3 0.68 3 0 3 C0 2.01 0 1.02 0 0 Z " fill="#050505" transform="translate(269,162)"/>
<path d="M0 0 C0.66 0.66 1.32 1.32 2 2 C1.06506561 3.89709988 0.12693704 5.79262578 -0.8125 7.6875 C-1.59560547 9.27111328 -1.59560547 9.27111328 -2.39453125 10.88671875 C-3.83478098 13.67961178 -5.23764657 16.39751097 -7 19 C-7.66 19 -8.32 19 -9 19 C-9.33 19.66 -9.66 20.32 -10 21 C-9.41681372 16.6620527 -7.82533957 13.6587185 -5.5625 9.9375 C-3.58840286 6.6693183 -1.64517074 3.44741808 0 0 Z " fill="#050505" transform="translate(334,177)"/>
<path d="M0 0 C1.5003479 0.07069702 1.5003479 0.07069702 3.03100586 0.14282227 C4.1105957 0.19116211 5.19018555 0.23950195 6.30249023 0.28930664 C7.43879883 0.34538086 8.57510742 0.40145508 9.74584961 0.45922852 C11.45611328 0.53753906 11.45611328 0.53753906 13.20092773 0.61743164 C16.02864984 0.74757785 18.85605961 0.8825573 21.68334961 1.02172852 C21.35334961 1.68172852 21.02334961 2.34172852 20.68334961 3.02172852 C17.05841627 3.07960635 13.43360104 3.11528272 9.80834961 3.14672852 C8.77581055 3.16348633 7.74327148 3.18024414 6.67944336 3.19750977 C5.69331055 3.20395508 4.70717773 3.21040039 3.69116211 3.21704102 C2.32435303 3.23275146 2.32435303 3.23275146 0.92993164 3.2487793 C-1.31665039 3.02172852 -1.31665039 3.02172852 -3.31665039 1.02172852 C-2.31665039 0.02172852 -2.31665039 0.02172852 0 0 Z " fill="#010101" transform="translate(214.316650390625,203.978271484375)"/>
<path d="M0 0 C2.5 0.4375 2.5 0.4375 4.375 2 C5.94714679 5.40631805 5.26094211 7.84031913 4.5 11.4375 C3.51 11.7675 2.52 12.0975 1.5 12.4375 C1.83 9.4675 2.16 6.4975 2.5 3.4375 C1.736875 3.4375 0.97375 3.4375 0.1875 3.4375 C-1.70833333 3.4375 -3.60416667 3.4375 -5.5 3.4375 C-3.73470379 1.20765215 -2.84766278 0.49834099 0 0 Z " fill="#040404" transform="translate(149.5,297.5625)"/>
<path d="M0 0 C0.226875 0.515625 0.45375 1.03125 0.6875 1.5625 C1.83715848 3.69758003 3.06249993 5.49539076 4.5 7.4375 C6.50203694 10.17775115 7.91871697 12.75615092 9 16 C8.01 16.33 7.02 16.66 6 17 C4.79471335 15.11542462 3.61133551 13.21682415 2.4375 11.3125 C1.44556641 9.72888672 1.44556641 9.72888672 0.43359375 8.11328125 C-1.12228996 4.73442753 -1.17333576 3.45589057 0 0 Z " fill="#161616" transform="translate(152,190)"/>
<path d="M0 0 C3.74182726 1.24727575 4.28306091 2.50436897 6.3125 5.8125 C7.14201172 7.12154297 7.14201172 7.12154297 7.98828125 8.45703125 C8.32214844 9.29621094 8.65601563 10.13539063 9 11 C8.34 12.32 7.68 13.64 7 15 C3.04 8.07 3.04 8.07 -1 1 C-0.67 0.67 -0.34 0.34 0 0 Z " fill="#252525" transform="translate(138,233)"/>
<path d="M0 0 C1.32 0 2.64 0 4 0 C4.33 0.99 4.66 1.98 5 3 C6.60379341 3.05416188 8.20811406 3.09286638 9.8125 3.125 C10.70582031 3.14820313 11.59914063 3.17140625 12.51953125 3.1953125 C15.25402714 3.18285827 15.25402714 3.18285827 18 1 C18 1.99 18 2.98 18 4 C15.33819828 6.66180172 13.83758981 6.39107316 10.125 6.5 C4.55825243 6.44660194 4.55825243 6.44660194 2.3203125 4.65625 C1.25 3 1.25 3 0 0 Z " fill="#080808" transform="translate(58,172)"/>
<path d="M0 0 C0.66 0 1.32 0 2 0 C1.30150228 3.9745504 -0.62892769 7.26574098 -2.5625 10.75 C-2.89185547 11.35199219 -3.22121094 11.95398438 -3.56054688 12.57421875 C-4.3696465 14.05170503 -5.18427662 15.52616036 -6 17 C-6.66 16.67 -7.32 16.34 -8 16 C-7.67 14.35 -7.34 12.7 -7 11 C-6.34 11 -5.68 11 -5 11 C-4.9175 10.29875 -4.835 9.5975 -4.75 8.875 C-3.81990995 5.3096548 -2.23313631 2.90984428 0 0 Z " fill="#070707" transform="translate(176,127)"/>
<path d="M0 0 C0.99 0 1.98 0 3 0 C2.125 6.875 2.125 6.875 1 8 C-5.2781597 8.59227922 -5.2781597 8.59227922 -8.4375 6 C-8.953125 5.34 -9.46875 4.68 -10 4 C-9.67 3.01 -9.34 2.02 -9 1 C-7.02 2.65 -5.04 4.3 -3 6 C-2.34 5.67 -1.68 5.34 -1 5 C-0.34444881 2.47266765 -0.34444881 2.47266765 0 0 Z " fill="#040404" transform="translate(152,37)"/>
<path d="M0 0 C0.66 0.99 1.32 1.98 2 3 C1.09674384 4.32176485 0.17682097 5.63215066 -0.75 6.9375 C-1.26046875 7.66839844 -1.7709375 8.39929688 -2.296875 9.15234375 C-4.19177915 11.20805399 -5.27425729 11.62669176 -8 12 C-8.66 10.35 -9.32 8.7 -10 7 C-8.68 7.33 -7.36 7.66 -6 8 C-4.02 5.36 -2.04 2.72 0 0 Z " fill="#050505" transform="translate(173,252)"/>
<path d="M0 0 C0.66 0.66 1.32 1.32 2 2 C1.443125 2.66 0.88625 3.32 0.3125 4 C-2.39898378 7.51760058 -4.70204929 11.2046142 -7 15 C-7.66 14.34 -8.32 13.68 -9 13 C-8.26290216 11.38986415 -7.50974143 9.78707609 -6.75 8.1875 C-6.33234375 7.29417969 -5.9146875 6.40085938 -5.484375 5.48046875 C-3.93460211 2.89071669 -2.51599234 1.61819166 0 0 Z " fill="#080808" transform="translate(154,149)"/>
<path d="M0 0 C1.65 0 3.3 0 5 0 C5.33 1.32 5.66 2.64 6 4 C5.01 4.66 4.02 5.32 3 6 C1.78581167 7.9466071 1.78581167 7.9466071 0.8125 10.125 C0.46832031 10.84945312 0.12414062 11.57390625 -0.23046875 12.3203125 C-0.48441406 12.87460938 -0.73835938 13.42890625 -1 14 C-1.99 13.34 -2.98 12.68 -4 12 C-3.71125 11.46890625 -3.4225 10.9378125 -3.125 10.390625 C-2.75375 9.68421875 -2.3825 8.9778125 -2 8.25 C-1.62875 7.55390625 -1.2575 6.8578125 -0.875 6.140625 C0.25224649 3.76832243 0.25224649 3.76832243 0 0 Z " fill="#0A0A0A" transform="translate(273,74)"/>
<path d="M0 0 C3.10000819 1.06478542 3.97462191 1.95797481 5.703125 4.8203125 C6.21359375 5.91085938 6.7240625 7.00140625 7.25 8.125 C7.77078125 9.22070312 8.2915625 10.31640625 8.828125 11.4453125 C9.40820312 12.70988281 9.40820312 12.70988281 10 14 C9.01 14 8.02 14 7 14 C5.39453125 12.13671875 5.39453125 12.13671875 3.8125 9.6875 C3.28269531 8.88699219 2.75289062 8.08648437 2.20703125 7.26171875 C1 5 1 5 1 2 C0.34 1.67 -0.32 1.34 -1 1 C-0.67 0.67 -0.34 0.34 0 0 Z " fill="#060606" transform="translate(193,108)"/>
<path d="M0 0 C1.16535524 3.49606571 1.08453328 4.51400016 0 8 C-1.54787656 10.74837487 -3.24026884 13.38313041 -5 16 C-5.66 15.67 -6.32 15.34 -7 15 C-5.45454854 9.52067211 -2.84456788 4.88570819 0 0 Z " fill="#272727" transform="translate(138,107)"/>
<path d="M0 0 C3.92005939 1.30668646 4.28032042 2.78667695 6.1875 6.375 C6.71730469 7.35210937 7.24710937 8.32921875 7.79296875 9.3359375 C9 12 9 12 9 15 C5.07994061 13.69331354 4.71967958 12.21332305 2.8125 8.625 C2.01779297 7.15933594 2.01779297 7.15933594 1.20703125 5.6640625 C0 3 0 3 0 0 Z " fill="#070707" transform="translate(303,112)"/>
<path d="M0 0 C0.33 1.32 0.66 2.64 1 4 C1.66 4 2.32 4 3 4 C6.3203125 9.078125 6.3203125 9.078125 7 11 C6.1171875 13.234375 6.1171875 13.234375 5 15 C3.96122737 13.4493684 2.94457445 11.88390319 1.9375 10.3125 C1.36902344 9.44238281 0.80054688 8.57226562 0.21484375 7.67578125 C-1.19442012 4.57177563 -1.00772958 3.1959424 0 0 Z " fill="#272727" transform="translate(152,254)"/>
<path d="M0 0 C1.41377341 2.63904371 2.37240135 5.07120629 3 8 C2.01 8 1.02 8 0 8 C0 7.34 0 6.68 0 6 C-1.98 6 -3.96 6 -6 6 C-3.84615385 0 -3.84615385 0 0 0 Z " fill="#232323" transform="translate(269,112)"/>
<path d="M0 0 C0.66 0.33 1.32 0.66 2 1 C1.01 2.485 1.01 2.485 0 4 C-0.16713569 6.62531524 -0.16713569 6.62531524 0 9 C2.97 9.33 5.94 9.66 9 10 C8.67 10.66 8.34 11.32 8 12 C0.6971831 12.35915493 0.6971831 12.35915493 -2.0625 10.9375 C-3.58299975 7.79513385 -2.78072633 5.30307292 -2 2 C-1.34 1.34 -0.68 0.68 0 0 Z " fill="#040404" transform="translate(378,166)"/>
<path d="M0 0 C0.99 0 1.98 0 3 0 C4.60546875 2.01171875 4.60546875 2.01171875 6.1875 4.6875 C6.71730469 5.55761719 7.24710938 6.42773438 7.79296875 7.32421875 C9.06589281 10.14607305 9.24766963 11.94540791 9 15 C8.71125 14.360625 8.4225 13.72125 8.125 13.0625 C7.17176549 10.84793921 7.17176549 10.84793921 5 10 C4.06606559 8.344389 3.19897217 6.65049478 2.375 4.9375 C1.92898437 4.01839844 1.48296875 3.09929687 1.0234375 2.15234375 C0.51683594 1.08693359 0.51683594 1.08693359 0 0 Z " fill="#020202" transform="translate(176,217)"/>
<path d="M0 0 C0.99 0.33 1.98 0.66 3 1 C0.69 5.29 -1.62 9.58 -4 14 C-4.66 13.01 -5.32 12.02 -6 11 C-5.18993474 9.35296694 -4.3768779 7.70740494 -3.5625 6.0625 C-3.11003906 5.14597656 -2.65757812 4.22945312 -2.19140625 3.28515625 C-1 1 -1 1 0 0 Z " fill="#070707" transform="translate(166,144)"/>
<path d="M0 0 C3 1 3 1 4.5625 3.75 C5.77051334 6.48116059 6.93355431 9.21083436 8 12 C7.01 12 6.02 12 5 12 C4.15885829 10.56705502 3.32734313 9.12845595 2.5 7.6875 C1.80390625 6.48673828 1.80390625 6.48673828 1.09375 5.26171875 C0 3 0 3 0 0 Z " fill="#050505" transform="translate(293,94)"/>
<path d="M0 0 C3.82669043 3.42388092 5.72278474 6.00724943 7 11 C4 11 4 11 2.375 9.4375 C0.62052407 6.32729266 0.33909158 3.52655246 0 0 Z " fill="#090909" transform="translate(175,76)"/>
<path d="M0 0 C1.859375 0.24609375 1.859375 0.24609375 4 1 C5.265625 2.84765625 5.265625 2.84765625 6.25 5.0625 C6.75273438 6.16271484 6.75273438 6.16271484 7.265625 7.28515625 C7.50796875 7.85105469 7.7503125 8.41695312 8 9 C7.01 9.66 6.02 10.32 5 11 C4.16151196 9.54462432 3.32936066 8.08559627 2.5 6.625 C1.80390625 5.40683594 1.80390625 5.40683594 1.09375 4.1640625 C0 2 0 2 0 0 Z " fill="#1F1F1F" transform="translate(107,180)"/>
<path d="M0 0 C2.3828125 -0.29296875 2.3828125 -0.29296875 5.125 -0.1875 C6.03507812 -0.16042969 6.94515625 -0.13335937 7.8828125 -0.10546875 C8.58148438 -0.07066406 9.28015625 -0.03585938 10 0 C10 0.66 10 1.32 10 2 C7.03 2 4.06 2 1 2 C0.67 3.65 0.34 5.3 0 7 C-0.66 5.68 -1.32 4.36 -2 3 C-1.34 2.01 -0.68 1.02 0 0 Z " fill="#191919" transform="translate(271,176)"/>
<path d="M0 0 C4.0042343 3.49087093 5.62671065 5.64951939 6 11 C5.01 11 4.02 11 3 11 C3 9.68 3 8.36 3 7 C2.34 7 1.68 7 1 7 C0.34 5.02 -0.32 3.04 -1 1 C-0.67 0.67 -0.34 0.34 0 0 Z " fill="#040404" transform="translate(146,181)"/>
<path d="M0 0 C-1 2 -1 2 -3.9375 3 C-5.4534375 3.495 -5.4534375 3.495 -7 4 C-7.66 4.66 -8.32 5.32 -9 6 C-9.66 5.01 -10.32 4.02 -11 3 C-9 0 -9 0 -6.625 -0.75 C-4.07496 -0.99286095 -2.40864929 -0.8028831 0 0 Z " fill="#2C2C2C" transform="translate(246,177)"/>
<path d="M0 0 C0.66 0 1.32 0 2 0 C2 0.99 2 1.98 2 3 C2.66 3 3.32 3 4 3 C7 8.625 7 8.625 7 12 C6.34 12 5.68 12 5 12 C4.15885829 10.56705502 3.32734313 9.12845595 2.5 7.6875 C1.80390625 6.48673828 1.80390625 6.48673828 1.09375 5.26171875 C0 3 0 3 0 0 Z " fill="#060606" transform="translate(279,134)"/>
<path d="M0 0 C0.99 0.33 1.98 0.66 3 1 C1.87548273 3.9719385 0.77706209 6.33440687 -1 9 C-2.32 8.67 -3.64 8.34 -5 8 C-3.35 5.36 -1.7 2.72 0 0 Z " fill="#272727" transform="translate(119,141)"/>
<path d="M0 0 C0.66 1.32 1.32 2.64 2 4 C2.66 4 3.32 4 4 4 C5.5625 6.8125 5.5625 6.8125 7 10 C6.67 10.99 6.34 11.98 6 13 C4.19363327 11.19363327 3.17776438 9.75536287 1.9375 7.5625 C1.59589844 6.96566406 1.25429688 6.36882812 0.90234375 5.75390625 C0 4 0 4 -1 1 C-0.67 0.67 -0.34 0.34 0 0 Z " fill="#040404" transform="translate(329,136)"/>
<path d="M0 0 C0.66 0.66 1.32 1.32 2 2 C1.38003922 3.29409289 0.75383647 4.58519673 0.125 5.875 C-0.22304687 6.59429687 -0.57109375 7.31359375 -0.9296875 8.0546875 C-2 10 -2 10 -4 12 C-4.99 11.67 -5.98 11.34 -7 11 C-6.34 11 -5.68 11 -5 11 C-5 9.68 -5 8.36 -5 7 C-4.34 7 -3.68 7 -3 7 C-3 6.01 -3 5.02 -3 4 C-2.34 4 -1.68 4 -1 4 C-0.67 2.68 -0.34 1.36 0 0 Z " fill="#2A2A2A" transform="translate(127,127)"/>
<path d="M0 0 C0.33 0.66 0.66 1.32 1 2 C0.0625 4.625 0.0625 4.625 -1 7 C-0.34 7.33 0.32 7.66 1 8 C1.33 8.99 1.66 9.98 2 11 C1.01 11.495 1.01 11.495 0 12 C-2 10.1875 -2 10.1875 -4 8 C-4 7.01 -4 6.02 -4 5 C-3.34 5 -2.68 5 -2 5 C-1.34 3.35 -0.68 1.7 0 0 Z " fill="#181818" transform="translate(155,284)"/>
<path d="M0 0 C1.32 0.33 2.64 0.66 4 1 C1.525 5.455 1.525 5.455 -1 10 C-1.66 10 -2.32 10 -3 10 C-2.49287967 6.28111761 -1.88391785 3.26545761 0 0 Z " fill="#050505" transform="translate(152,83)"/>
<path d="M0 0 C0.88492145 2.47778006 1.11637742 3.66056586 0.25 6.1875 C-1 8 -1 8 -4 9 C-4.66 8.67 -5.32 8.34 -6 8 C-6 7.01 -6 6.02 -6 5 C-4.36368108 3.95107762 -2.69514137 2.95093297 -1 2 C-0.67 1.34 -0.34 0.68 0 0 Z " fill="#161616" transform="translate(299,287)"/>
<path d="M0 0 C1.70884005 1.62339805 3.37446717 3.29319053 5 5 C5 5.66 5 6.32 5 7 C5.66 7.33 6.32 7.66 7 8 C6.67 8.66 6.34 9.32 6 10 C5.34 10 4.68 10 4 10 C2.67578125 8.3203125 2.67578125 8.3203125 1.3125 6.125 C0.85488281 5.40570313 0.39726562 4.68640625 -0.07421875 3.9453125 C-0.37972656 3.30335938 -0.68523437 2.66140625 -1 2 C-0.67 1.34 -0.34 0.68 0 0 Z " fill="#030303" transform="translate(172,227)"/>
<path d="M0 0 C-0.33 0.99 -0.66 1.98 -1 3 C-6.75 4.125 -6.75 4.125 -9 3 C-8.67 2.01 -8.34 1.02 -8 0 C-4.71303767 -0.79953138 -3.28976808 -1.09658936 0 0 Z " fill="#282828" transform="translate(299,176)"/>
<path d="M0 0 C2.61047801 1.305239 2.68066423 2.35826574 3.625 5.0625 C3.88539063 5.79597656 4.14578125 6.52945312 4.4140625 7.28515625 C4.60742188 7.85105469 4.80078125 8.41695313 5 9 C4.01 9 3.02 9 2 9 C0.02 5.535 0.02 5.535 -2 2 C-1.34 1.34 -0.68 0.68 0 0 Z " fill="#040404" transform="translate(268,250)"/>
<path d="M0 0 C-1.33488128 3.59391114 -2.96022723 6.75490696 -5 10 C-5.66 9.67 -6.32 9.34 -7 9 C-4.4 0 -4.4 0 0 0 Z " fill="#151515" transform="translate(328,210)"/>
<path d="M0 0 C0.66 0 1.32 0 2 0 C1.45276317 3.37462715 0.9451 5.08235 -1 8 C-3.625 8.6875 -3.625 8.6875 -6 9 C-5.67 8.01 -5.34 7.02 -5 6 C-4.34 6 -3.68 6 -3 6 C-2.690625 5.38125 -2.38125 4.7625 -2.0625 4.125 C-1.375 2.75 -0.6875 1.375 0 0 Z " fill="#0A0A0A" transform="translate(199,226)"/>
<path d="M0 0 C5 6.59090909 5 6.59090909 5 10 C3.68 9.34 2.36 8.68 1 8 C1 7.01 1 6.02 1 5 C0.34 5 -0.32 5 -1 5 C-0.67 3.35 -0.34 1.7 0 0 Z " fill="#040404" transform="translate(254,208)"/>
<path d="M0 0 C-0.33 0.66 -0.66 1.32 -1 2 C-4.0625 2.625 -4.0625 2.625 -7 3 C-7.33 3.99 -7.66 4.98 -8 6 C-10.0625 7.1875 -10.0625 7.1875 -12 8 C-8.75418994 1.27653631 -8.75418994 1.27653631 -6.125 0.3125 C-4 0 -4 0 0 0 Z " fill="#444444" transform="translate(312,27)"/>
<path d="M0 0 C0.33 0.66 0.66 1.32 1 2 C-2.14754098 8.64480874 -2.14754098 8.64480874 -5.25 9.9375 C-5.8275 9.958125 -6.405 9.97875 -7 10 C-2.85714286 2.42857143 -2.85714286 2.42857143 0 0 Z " fill="#020202" transform="translate(320,204)"/>
<path d="M0 0 C0.99 0 1.98 0 3 0 C3.28875 0.61875 3.5775 1.2375 3.875 1.875 C4.93720042 4.13325765 4.93720042 4.13325765 7 6 C6.01 6.99 5.02 7.98 4 9 C0 2.25 0 2.25 0 0 Z " fill="#1C1C1C" transform="translate(288,86)"/>
<path d="M0 0 C0.99 0 1.98 0 3 0 C1.48328036 4.55015893 -2.16891053 6.50057264 -6 9 C-4.4705003 5.55862568 -2.54630448 2.7777867 0 0 Z " fill="#1B1B1B" transform="translate(291,50)"/>
<path d="M0 0 C2.97 0 5.94 0 9 0 C9 0.66 9 1.32 9 2 C6.29120665 3.35439668 3.99066732 3.06501451 1 3 C0.67 2.01 0.34 1.02 0 0 Z " fill="#070707" transform="translate(255,278)"/>
<path d="M0 0 C2.1875 0.3125 2.1875 0.3125 4 1 C2.68 1.33 1.36 1.66 0 2 C0.350625 2.598125 0.70125 3.19625 1.0625 3.8125 C2 6 2 6 1 9 C-0.32 7.02 -1.64 5.04 -3 3 C-1.75 1.4375 -1.75 1.4375 0 0 Z " fill="#404040" transform="translate(195,178)"/>
<path d="M0 0 C-1.57960269 1.57960269 -3.19536816 1.16986544 -5.375 1.1875 C-6.16648437 1.20167969 -6.95796875 1.21585938 -7.7734375 1.23046875 C-10 1 -10 1 -13 -1 C-11.58566794 -1.2236337 -10.16832382 -1.42826476 -8.75 -1.625 C-7.56664063 -1.79902344 -7.56664063 -1.79902344 -6.359375 -1.9765625 C-3.67847541 -2.00319395 -2.27305911 -1.36592084 0 0 Z " fill="#444444" transform="translate(74,167)"/>
<path d="M0 0 C1.67542976 0.28604898 3.34385343 0.61781233 5 1 C4.67 1.99 4.34 2.98 4 4 C0.9375 5.1875 0.9375 5.1875 -2 6 C-1.125 1.125 -1.125 1.125 0 0 Z " fill="#434343" transform="translate(152,49)"/>
<path d="M0 0 C-0.99 0.33 -1.98 0.66 -3 1 C-4.21869929 3.50447516 -4.21869929 3.50447516 -5 6 C-5.99 5.67 -6.98 5.34 -8 5 C-7.625 3.0625 -7.625 3.0625 -7 1 C-4.53721199 -0.231394 -2.7204945 -0.07159196 0 0 Z " fill="#161616" transform="translate(305,298)"/>
<path d="M0 0 C0.33 0.66 0.66 1.32 1 2 C1.66 2 2.32 2 3 2 C3.66 3.65 4.32 5.3 5 7 C3.35 6.67 1.7 6.34 0 6 C-0.38218767 4.34385343 -0.71395102 2.67542976 -1 1 C-0.67 0.67 -0.34 0.34 0 0 Z " fill="#050505" transform="translate(273,240)"/>
<path d="M0 0 C0.33 0 0.66 0 1 0 C1.41176754 3.60296594 1.1535853 4.78402067 -1 7.8125 C-1.66 8.534375 -2.32 9.25625 -3 10 C-3 5.66905042 -2.03435531 3.72965139 0 0 Z " fill="#060606" transform="translate(261,194)"/>
<path d="M0 0 C0.66 0.66 1.32 1.32 2 2 C2.99 2.66 3.98 3.32 5 4 C4.67 5.32 4.34 6.64 4 8 C3.236875 7.38125 2.47375 6.7625 1.6875 6.125 C-0.99625809 3.94402948 -0.99625809 3.94402948 -4 2 C-2.68 1.34 -1.36 0.68 0 0 Z " fill="#353535" transform="translate(141,175)"/>
<path d="M0 0 C0.66 0.66 1.32 1.32 2 2 C1.21718695 3.33855056 0.42348123 4.67073644 -0.375 6 C-0.81585938 6.7425 -1.25671875 7.485 -1.7109375 8.25 C-2.13632813 8.8275 -2.56171875 9.405 -3 10 C-3.66 10 -4.32 10 -5 10 C-4.49701212 5.59885603 -2.91227269 3.28804981 0 0 Z " fill="#050505" transform="translate(254,114)"/>
<path d="M0 0 C0.66 0.33 1.32 0.66 2 1 C1.66226563 1.47050781 1.32453125 1.94101563 0.9765625 2.42578125 C0.30753906 3.35970703 0.30753906 3.35970703 -0.375 4.3125 C-0.81585938 4.92738281 -1.25671875 5.54226562 -1.7109375 6.17578125 C-2.83410907 7.7652392 -3.92041447 9.38062171 -5 11 C-5.33 10.01 -5.66 9.02 -6 8 C-4.78515625 5.95703125 -4.78515625 5.95703125 -3.0625 3.8125 C-2.49660156 3.09707031 -1.93070313 2.38164062 -1.34765625 1.64453125 C-0.90292969 1.10183594 -0.45820313 0.55914062 0 0 Z " fill="#020202" transform="translate(180,242)"/>
<path d="M0 0 C0.66 0 1.32 0 2 0 C1.75 2.375 1.75 2.375 1 5 C-1.0625 6.3125 -1.0625 6.3125 -3 7 C-1.125 1.125 -1.125 1.125 0 0 Z M-4 7 C-4 10 -4 10 -4 10 Z " fill="#1E1E1E" transform="translate(302,233)"/>
<path d="M0 0 C2.475 0.99 2.475 0.99 5 2 C4.67 3.65 4.34 5.3 4 7 C2 5.1875 2 5.1875 0 3 C0 2.01 0 1.02 0 0 Z " fill="#272727" transform="translate(122,205)"/>
<path d="M0 0 C0.66 0 1.32 0 2 0 C1.5206753 4.31392226 0.2542015 6.16569547 -3 9 C-3.33 8.34 -3.66 7.68 -4 7 C-3.22265625 5.2734375 -3.22265625 5.2734375 -2.0625 3.375 C-1.381875 2.26125 -0.70125 1.1475 0 0 Z " fill="#1B1B1B" transform="translate(292,250)"/>
<path d="M0 0 C0.66 0.33 1.32 0.66 2 1 C0.92598892 3.91517292 0.22189824 5.77810176 -2 8 C-2.66 7.67 -3.32 7.34 -4 7 C-2.79618552 4.50638429 -1.54571278 2.31856917 0 0 Z " fill="#222222" transform="translate(284,220)"/>
<path d="M0 0 C3.01327566 1.50663783 3.61056618 4.03166411 5 7 C4.34 7.66 3.68 8.32 3 9 C0.9375 6.1875 0.9375 6.1875 -1 3 C-0.67 2.01 -0.34 1.02 0 0 Z " fill="#030303" transform="translate(167,218)"/>
<path d="M0 0 C0.66 0 1.32 0 2 0 C0.125 5.75 0.125 5.75 -1 8 C-1.99 7.67 -2.98 7.34 -4 7 C-3.34 5.35 -2.68 3.7 -2 2 C-1.34 2 -0.68 2 0 2 C0 1.34 0 0.68 0 0 Z " fill="#030303" transform="translate(330,202)"/>
<path d="M0 0 C2.97 0 5.94 0 9 0 C9 0.66 9 1.32 9 2 C6.69 2.33 4.38 2.66 2 3 C1.34 2.01 0.68 1.02 0 0 Z " fill="#090909" transform="translate(131,175)"/>
<path d="M0 0 C0.66 0 1.32 0 2 0 C2.99 2.97 3.98 5.94 5 9 C2 8 2 8 0.25 5.0625 C-0.1625 4.051875 -0.575 3.04125 -1 2 C-0.67 1.34 -0.34 0.68 0 0 Z " fill="#020202" transform="translate(291,153)"/>
<path d="M0 0 C0.66 0.33 1.32 0.66 2 1 C0.68 3.31 -0.64 5.62 -2 8 C-2.99 7.67 -3.98 7.34 -5 7 C-1.125 1.125 -1.125 1.125 0 0 Z " fill="#030303" transform="translate(128,147)"/>
<path d="M0 0 C1.09658936 3.28976808 0.79953138 4.71303767 0 8 C-1.32 8.33 -2.64 8.66 -4 9 C-2.94124926 5.59687262 -1.99097846 2.98646769 0 0 Z " fill="#212121" transform="translate(138,107)"/>
<path d="M0 0 C1.32 0.33 2.64 0.66 4 1 C4.33 2.98 4.66 4.96 5 7 C4.01 6.67 3.02 6.34 2 6 C0.8125 2.9375 0.8125 2.9375 0 0 Z " fill="#040404" transform="translate(304,96)"/>
<path d="M0 0 C1.65 0 3.3 0 5 0 C5.33 1.32 5.66 2.64 6 4 C4.02 4.66 2.04 5.32 0 6 C0 4.02 0 2.04 0 0 Z " fill="#040404" transform="translate(273,74)"/>
<path d="M0 0 C1.77706209 2.66559313 2.87548273 5.0280615 4 8 C3.01 8.495 3.01 8.495 2 9 C2 8.34 2 7.68 2 7 C1.01 6.67 0.02 6.34 -1 6 C-1.042721 4.33388095 -1.04063832 2.66617115 -1 1 C-0.67 0.67 -0.34 0.34 0 0 Z " fill="#0A0A0A" transform="translate(291,69)"/>
<path d="M0 0 C0.33 0.66 0.66 1.32 1 2 C-0.4375 4.625 -0.4375 4.625 -2 7 C-2.66 6.67 -3.32 6.34 -4 6 C-3.6875 4.125 -3.6875 4.125 -3 2 C-2.01 1.34 -1.02 0.68 0 0 Z " fill="#090909" transform="translate(159,278)"/>
<path d="M0 0 C0.33 1.32 0.66 2.64 1 4 C1.66 4 2.32 4 3 4 C3 5.65 3 7.3 3 9 C2.34 9 1.68 9 1 9 C-0.61949011 6.42786866 -1.04408751 5.32330841 -0.625 2.25 C-0.41875 1.5075 -0.2125 0.765 0 0 Z " fill="#1D1D1D" transform="translate(152,254)"/>
<path d="M0 0 C0.99 0.33 1.98 0.66 3 1 C2.01 2.98 1.02 4.96 0 7 C-0.66 7 -1.32 7 -2 7 C-1.125 1.125 -1.125 1.125 0 0 Z " fill="#030303" transform="translate(335,193)"/>
<path d="M0 0 C0.66 0.33 1.32 0.66 2 1 C1.25 3.9375 1.25 3.9375 0 7 C-2.125 7.875 -2.125 7.875 -4 8 C-2.87548273 5.0280615 -1.77706209 2.66559313 0 0 Z " fill="#373737" transform="translate(181,161)"/>
<path d="M0 0 C4.62 0 9.24 0 14 0 C14 1.32 14 2.64 14 4 C13.34 3.34 12.68 2.68 12 2 C9.10776497 1.53603307 9.10776497 1.53603307 5.875 1.375 C4.23144531 1.26285156 4.23144531 1.26285156 2.5546875 1.1484375 C1.71164063 1.09945312 0.86859375 1.05046875 0 1 C0 0.67 0 0.34 0 0 Z " fill="#E24448" transform="translate(223,140)"/>
<path d="M0 0 C0 3.69418201 -1.28179295 5.77836178 -3 9 C-3.66 9 -4.32 9 -5 9 C-3.375 2.25 -3.375 2.25 0 0 Z " fill="#030303" transform="translate(263,118)"/>
<path d="M0 0 C2.64 0.33 5.28 0.66 8 1 C6.375 2.5625 6.375 2.5625 4 4 C0.75 3.6875 0.75 3.6875 -2 3 C-1.34 2.01 -0.68 1.02 0 0 Z " fill="#3C3C3C" transform="translate(199,235)"/>
<path d="M0 0 C1.5625 1.75 1.5625 1.75 3 4 C2.6875 6.25 2.6875 6.25 2 8 C0.68 6.35 -0.64 4.7 -2 3 C-1 1 -1 1 0 0 Z " fill="#303030" transform="translate(135,225)"/>
<path d="M0 0 C1.32 0.33 2.64 0.66 4 1 C4.33 3.31 4.66 5.62 5 8 C4.34 8 3.68 8 3 8 C0 2.25 0 2.25 0 0 Z " fill="#050505" transform="translate(232,193)"/>
<path d="M0 0 C1.875 0.1875 1.875 0.1875 4 1 C5.25 3.5625 5.25 3.5625 6 6 C4.125 5.8125 4.125 5.8125 2 5 C0.75 2.4375 0.75 2.4375 0 0 Z " fill="#1F1F1F" transform="translate(159,187)"/>
<path d="M0 0 C3.3 0 6.6 0 10 0 C5.5 3.375 5.5 3.375 1 3 C0.67 2.01 0.34 1.02 0 0 Z " fill="#060606" transform="translate(193,176)"/>
<path d="M0 0 C1.2065625 0.0309375 1.2065625 0.0309375 2.4375 0.0625 C2.7675 1.3825 3.0975 2.7025 3.4375 4.0625 C-1.3125 3.3125 -1.3125 3.3125 -3.5625 1.0625 C-2.5625 0.0625 -2.5625 0.0625 0 0 Z " fill="#2C2C2C" transform="translate(177.5625,175.9375)"/>
<path d="M0 0 C1.32 0 2.64 0 4 0 C6 3 6 3 6 6 C3.37812506 4.95125002 2.20628639 4.35068687 0.75 1.875 C0.5025 1.25625 0.255 0.6375 0 0 Z " fill="#090909" transform="translate(298,151)"/>
<path d="M0 0 C0.99 0 1.98 0 3 0 C3 0.99 3 1.98 3 3 C2.34 3 1.68 3 1 3 C1 3.66 1 4.32 1 5 C-0.32 5 -1.64 5 -3 5 C-1.125 1.125 -1.125 1.125 0 0 Z " fill="#080808" transform="translate(284,81)"/>
<path d="M0 0 C1.5 1.25 1.5 1.25 3 3 C3 4.32 3 5.64 3 7 C1.68 6.34 0.36 5.68 -1 5 C-0.67 3.35 -0.34 1.7 0 0 Z " fill="#060606" transform="translate(309,303)"/>
<path d="M0 0 C0 0.99 0 1.98 0 3 C-2.31 3.33 -4.62 3.66 -7 4 C-7 3.01 -7 2.02 -7 1 C-4 0 -4 0 0 0 Z " fill="#1B1B1B" transform="translate(281,251)"/>
<path d="M0 0 C0.66 0.33 1.32 0.66 2 1 C-1.625 6.875 -1.625 6.875 -5 8 C-3.8141763 4.62496331 -2.72426311 2.35277269 0 0 Z " fill="#080808" transform="translate(275,217)"/>
<path d="M0 0 C0.66 0.33 1.32 0.66 2 1 C1.67 2.98 1.34 4.96 1 7 C0.01 7 -0.98 7 -2 7 C-1.34 4.69 -0.68 2.38 0 0 Z " fill="#060606" transform="translate(366,169)"/>
<path d="M0 0 C0.66 0.99 1.32 1.98 2 3 C1.01 4.32 0.02 5.64 -1 7 C-1.99 6.67 -2.98 6.34 -4 6 C-2.68 4.02 -1.36 2.04 0 0 Z " fill="#080808" transform="translate(196,157)"/>
<path d="M0 0 C0.66 0 1.32 0 2 0 C0.55746343 3.36591866 -1.33264727 5.51047079 -4 8 C-3.40312566 4.65750371 -2.26396123 2.53563658 0 0 Z " fill="#020202" transform="translate(152,150)"/>
<path d="M0 0 C0.66 0 1.32 0 2 0 C3.4606285 2.64738916 4 3.89448334 4 7 C3.01 6.67 2.02 6.34 1 6 C0.67 4.02 0.34 2.04 0 0 Z " fill="#030303" transform="translate(146,246)"/>
<path d="M0 0 C1.20628008 2.33214148 2.1654738 4.49642139 3 7 C2.34 7.66 1.68 8.32 1 9 C-0.61949011 6.42786866 -1.04408751 5.32330841 -0.625 2.25 C-0.41875 1.5075 -0.2125 0.765 0 0 Z " fill="#3F3F3F" transform="translate(152,190)"/>
<path d="M0 0 C0.33 0 0.66 0 1 0 C1.36923077 5.53846154 1.36923077 5.53846154 -0.5 7.875 C-1.2425 8.431875 -1.2425 8.431875 -2 9 C-2.33 8.34 -2.66 7.68 -3 7 C-2.06421005 4.64018187 -1.06652192 2.30368736 0 0 Z " fill="#292929" transform="translate(306,181)"/>
<path d="M0 0 C1.32 0 2.64 0 4 0 C3.67 1.32 3.34 2.64 3 4 C1.35 4 -0.3 4 -2 4 C-1.34 2.68 -0.68 1.36 0 0 Z " fill="#2A2A2A" transform="translate(256,165)"/>
<path d="M0 0 C0.33 0.66 0.66 1.32 1 2 C-0.3125 4.625 -0.3125 4.625 -2 7 C-2.66 7 -3.32 7 -4 7 C-2.92598892 4.08482708 -2.22189824 2.22189824 0 0 Z " fill="#030303" transform="translate(123,157)"/>
<path d="M0 0 C0.66 0 1.32 0 2 0 C3.6875 2.375 3.6875 2.375 5 5 C4.67 5.66 4.34 6.32 4 7 C2 5.1875 2 5.1875 0 3 C0 2.01 0 1.02 0 0 Z " fill="#030303" transform="translate(271,120)"/>
<path d="M0 0 C1.9375 0.625 1.9375 0.625 4 2 C4.75 5.125 4.75 5.125 5 8 C4.34 8 3.68 8 3 8 C2.01 5.36 1.02 2.72 0 0 Z " fill="#020202" transform="translate(187,116)"/>
<path d="M0 0 C0.66 0 1.32 0 2 0 C4 2 4 2 4 6 C3.01 6 2.02 6 1 6 C0.67 4.02 0.34 2.04 0 0 Z " fill="#2C2C2C" transform="translate(272,101)"/>
<path d="M0 0 C0.66 0 1.32 0 2 0 C2.33 1.32 2.66 2.64 3 4 C3.66 4 4.32 4 5 4 C4.67 4.99 4.34 5.98 4 7 C2 5.1875 2 5.1875 0 3 C0 2.01 0 1.02 0 0 Z " fill="#010101" transform="translate(299,86)"/>
<path d="M0 0 C0 3.57575896 -1.08840607 5.05295935 -3 8 C-3.66 7.67 -4.32 7.34 -5 7 C-3.75023244 3.34683329 -3.32901247 2.21934164 0 0 Z " fill="#020202" transform="translate(297,59)"/>
<path d="M0 0 C1.5625 1.1875 1.5625 1.1875 3 3 C2.6875 5.6875 2.6875 5.6875 2 8 C1.34 7.67 0.68 7.34 0 7 C0 4.69 0 2.38 0 0 Z " fill="#1C1C1C" transform="translate(299,36)"/>
<path d="M0 0 C1.32 0.33 2.64 0.66 4 1 C3.01 1 2.02 1 1 1 C0.67 2.65 0.34 4.3 0 6 C-0.99 5.34 -1.98 4.68 -3 4 C-2.01 2.68 -1.02 1.36 0 0 Z " fill="#131313" transform="translate(142,28)"/>
<path d="" fill="#000000" transform="translate(0,0)"/>
<path d="" fill="#000000" transform="translate(0,0)"/>
</svg>
